<svg width="504" height="119" viewBox="0 0 504 119" fill="none" xmlns="http://www.w3.org/2000/svg">
<path d="M158.15 0.899993L128.15 13.95V67.95C124.7 62.85 119 60.6 112.55 60C81.05 57.15 65.45 97.8 11.3 88.65C60.65 81 90.05 51 81.95 2.24999L49.25 16.95C65.9 50.7 39.65 82.5 0.5 86.4C0.5 87.75 0.35 88.95 0.35 90.3C65.45 106.05 80.9 62.1 111.05 64.2C121.85 65.1 127.25 71.1 128.15 82.8V83.4C127.7 102.75 114.5 115.5 95 115.5H86.6V117H167V115.5H165.65C161.15 115.5 158.15 112.5 158.15 108V0.899993ZM175.98 61.95C175.98 95.85 208.53 118.65 257.58 118.65C306.63 118.65 339.18 95.85 339.18 62.1C339.18 28.2 306.33 5.4 257.43 5.4C208.68 5.4 175.98 28.05 175.98 61.95ZM204.48 62.1C204.48 28.35 223.83 9.14999 257.58 9.14999C271.68 9.14999 283.23 12.45 292.08 18.9C310.83 41.4 214.98 73.05 220.68 103.2C210.18 94.2 204.48 80.25 204.48 62.1ZM228.48 108.45C207.78 80.7 298.38 52.5 298.98 25.35C306.63 34.35 310.68 46.65 310.68 62.1C310.68 95.85 291.48 114.9 257.58 114.9C246.18 114.9 236.43 112.65 228.48 108.45ZM494.185 0.899993L464.185 13.95V67.95C460.735 62.85 455.035 60.6 448.585 60C417.085 57.15 401.485 97.8 347.335 88.65C396.685 81 426.085 51 417.985 2.24999L385.285 16.95C401.935 50.7 375.685 82.5 336.535 86.4C336.535 87.75 336.385 88.95 336.385 90.3C401.485 106.05 416.935 62.1 447.085 64.2C457.885 65.1 463.285 71.1 464.185 82.8V83.4C463.735 102.75 450.535 115.5 431.035 115.5H422.635V117H503.035V115.5H501.685C497.185 115.5 494.185 112.5 494.185 108V0.899993Z" fill="black"/>
</svg>
